<svg xmlns="http://www.w3.org/2000/svg" version="1.0" preserveAspectRatio="xMidYMid meet" viewBox="80.08 80.04 339.83 339.89">

<g transform="translate(0.000000,500.000000) scale(0.100000,-0.100000)" fill="#ffffff" stroke="none">
<path d="M2245 4184 c-731 -114 -1301 -678 -1426 -1411 -18 -112 -21 -153 -16 -318 6 -218 23 -315 87 -506 79 -239 212 -450 405 -645 248 -249 525 -400 870 -474 144 -31 421 -39 570 -16 361 56 647 191 914 432 179 161 359 426 445 655 140 372 140 828 1 1194 -198 519 -642 919 -1173 1054 -198 51 -481 65 -677 35z m380 -154 c381 -37 686 -180 956 -450 267 -267 412 -572 450 -950 42 -423 -112 -878 -402 -1184 -354 -374 -817 -288 -1022 189 -15 33 -55 134 -91 223 -83 212 -138 303 -243 402 -105 99 -217 156 -478 241 -284 92 -413 166 -507 290 -83 110 -114 211 -105 349 10 171 77 303 231 455 254 251 589 406 941 435 131 11 159 11 270 0z" fill="#ffffff"/>
<path d="M2347 3740 c-265 -30 -516 -149 -697 -330 -150 -150 -209 -287 -181 -422 17 -83 50 -139 130 -218 81 -80 142 -112 359 -193 202 -75 296 -127 392 -215 116 -105 166 -186 278 -444 33 -74 76 -160 96 -191 80 -120 219 -218 330 -232 197 -25 427 160 572 460 168 348 162 751 -16 1105 -139 275 -404 508 -698 614 -159 57 -398 85 -565 66z m283 -295 c269 -41 502 -185 657 -406 223 -320 228 -762 11 -1075 -136 -197 -277 -258 -421 -182 -77 42 -122 99 -211 270 -162 311 -269 420 -535 545 -257 121 -265 126 -322 182 -121 121 -116 255 13 396 123 134 303 231 493 264 134 24 194 25 315 6z" fill="#ffffff"/>
<path d="M2332 3145 c-205 -47 -352 -179 -340 -305 8 -79 38 -108 190 -185 73 -37 153 -81 178 -98 83 -56 222 -206 274 -297 27 -47 63 -109 80 -138 90 -156 239 -150 351 14 61 89 86 176 92 319 4 73 1 143 -6 175 -48 231 -216 419 -448 502 -76 27 -279 34 -371 13z m317 -254 c191 -72 306 -282 256 -466 -11 -41 -29 -78 -51 -104 -66 -76 -135 -62 -211 42 -64 89 -154 177 -255 248 -110 78 -128 99 -128 147 0 124 218 198 389 133z" fill="#ffffff"/>
</g>
</svg>